<?xml version="1.0" encoding="UTF-8"?>
<svg id="logosandtypes_com" data-name="logosandtypes com" xmlns="http://www.w3.org/2000/svg" viewBox="0 0 150 150">
  <defs>
    <style>
      .cls-1 {
        fill: none;
      }

      .cls-2 {
        fill: #3b67f7;
      }
    </style>
  </defs>
  <path class="cls-1" d="M0,0H150V150H0V0Z"/>
  <path class="cls-2" d="M64.73,10.47L24.05,33.87c-6.34,3.66-10.27,10.42-10.27,17.73v46.79c0,7.31,3.92,14.08,10.27,17.73l40.68,23.4c6.36,3.66,14.19,3.66,20.55,0l40.68-23.4c6.36-3.66,10.27-10.42,10.27-17.73V51.6c0-7.31-3.92-14.08-10.27-17.73L85.27,10.47c-6.36-3.66-14.19-3.66-20.55,0ZM29.12,99.09V50.92c0-1.47,.79-2.81,2.05-3.55l41.77-24.02c1.28-.74,2.85-.73,4.13,0l13.24,7.7-30.42,17.5v52.91l-15.38,8.85-13.33-7.67c-1.28-.73-2.05-2.09-2.05-3.55v.02Zm89.71,3.52l-41.77,24.03c-1.28,.74-2.85,.73-4.13,0l-13.24-7.7,30.42-17.5V48.54l15.38-8.85,13.33,7.67c1.28,.73,2.05,2.09,2.05,3.55v48.17c0,1.47-.79,2.81-2.05,3.55v-.02Z"/>
</svg>