<?xml version="1.0" encoding="utf-8"?>
<!-- Generator: Adobe Illustrator 27.4.1, SVG Export Plug-In . SVG Version: 6.00 Build 0)  -->
<svg version="1.1" id="Layer_1" xmlns="http://www.w3.org/2000/svg" xmlns:xlink="http://www.w3.org/1999/xlink" x="0px" y="0px"
	 viewBox="0 0 270.6 270.6" style="enable-background:new 0 0 270.6 270.6;" xml:space="preserve">
<style type="text/css">
	.st0{fill:#1A1A1A;}
	.st1{fill:#FFFFFF;}
	.st2{fill:none;stroke:#FFFFFF;stroke-width:0.75;stroke-miterlimit:10;}
	.st3{fill:url(#SVGID_1_);}
</style>
<g>
	<circle class="st0" cx="135.3" cy="135.3" r="135.3"/>
	<g>
		<g>
			<path class="st1" d="M245.55,115.64c-3.6-27.3-17.18-52.21-38.26-70.16l1.78-2.09c21.59,18.39,35.51,43.92,39.2,71.89
				L245.55,115.64z"/>
		</g>
		<g>
			<path class="st1" d="M24.57,115.64l-2.72-0.36c3.69-27.97,17.61-53.51,39.2-71.9l1.78,2.09C41.75,63.42,28.16,88.34,24.57,115.64
				z"/>
		</g>
		<g>
			<path class="st2" d="M61.94,44.43"/>
		</g>
	</g>
	<g>
		<path class="st1" d="M83.07,30.84l-5.91,2.53l-1.44-3.36l15.22-6.51l1.44,3.36l-5.7,2.44l6.61,15.46l-3.61,1.54L83.07,30.84z"/>
		<path class="st1" d="M96.53,21.62l3.84-0.89l1.92,8.23l9.51-2.21l-1.92-8.23l3.82-0.89l4.63,19.94l-3.82,0.89l-1.92-8.26
			l-9.51,2.21l1.92,8.26l-3.84,0.89L96.53,21.62z"/>
		<path class="st1" d="M120.31,16.79l8.96-0.47c1.31-0.07,2.51,0.18,3.61,0.75c1.1,0.57,2,1.37,2.67,2.41
			c0.68,1.04,1.05,2.17,1.11,3.4c0.05,0.9-0.09,1.76-0.4,2.6c-0.32,0.84-0.78,1.58-1.39,2.22c-0.61,0.65-1.32,1.14-2.12,1.47
			l4.92,7.21l-4.21,0.22l-4.6-6.73l-3.91,0.21l0.36,6.95l-3.94,0.21L120.31,16.79z M129.71,26.4c0.95-0.05,1.74-0.4,2.35-1.06
			c0.61-0.66,0.89-1.46,0.84-2.41c-0.05-0.92-0.4-1.67-1.06-2.26c-0.66-0.59-1.45-0.86-2.38-0.81l-5.02,0.26l0.34,6.54L129.71,26.4z
			"/>
		<path class="st1" d="M142.27,16.2l14.62,1.59l-0.39,3.6l-10.7-1.16l-0.52,4.8l9.53,1.04l-0.39,3.55l-9.54-1.04l-0.52,4.77
			l10.7,1.16l-0.4,3.63l-14.62-1.59L142.27,16.2z"/>
		<path class="st1" d="M169.22,20.65l5.86,1.72l0.94,21.6l-3.9-1.14l-0.17-4.5l-8.76-2.56l-2.63,3.68l-3.9-1.14L169.22,20.65z
			 M171.82,34.57l-0.39-10.66l-6.13,8.75L171.82,34.57z"/>
		<path class="st1" d="M188.05,31.29l-5.82-2.75l1.56-3.3l14.96,7.07l-1.56,3.31l-5.6-2.65l-7.18,15.2l-3.54-1.67L188.05,31.29z"/>
	</g>
	<g>
		<path class="st1" d="M38.56,134.82l0.13,4.06l-21.06,0.68l-0.13-4.06L38.56,134.82z"/>
		<path class="st1" d="M38.47,141.9l1.19,6.58L23.8,159.29l17.24-3.14l0.7,3.91L21,163.81l-1.15-6.37l16.27-11.07l-17.69,3.19
			l-0.71-3.91L38.47,141.9z"/>
		<path class="st1" d="M41.32,169.43l-2.47-6.15l3.49-1.4l6.35,15.82l-3.49,1.4l-2.38-5.92l-16.07,6.45l-1.5-3.74L41.32,169.43z"/>
		<path class="st1" d="M49.61,179.27l8.11,12.79l-3.15,2l-5.93-9.36l-4.19,2.66l5.29,8.34l-3.11,1.97l-5.29-8.34l-4.17,2.64
			l5.93,9.36l-3.18,2.02l-8.11-12.79L49.61,179.27z"/>
		<path class="st1" d="M59.22,193.88l2.73,3.01l-12.83,11.63l6.73,7.43l-2.79,2.53l-9.46-10.44L59.22,193.88z"/>
		<path class="st1" d="M70.12,205.59l3.18,2.53l-10.77,13.55l7.85,6.24l-2.34,2.95l-11.03-8.76L70.12,205.59z"/>
		<path class="st1" d="M83.24,215.42l3.46,2.13l-11.02,17.96l-3.47-2.12L83.24,215.42z"/>
		<path class="st1" d="M89.86,242.88c-1.8-0.76-3.26-1.9-4.39-3.42c-1.13-1.52-1.83-3.23-2.08-5.13c-0.26-1.9,0-3.74,0.75-5.53
			c0.76-1.79,1.91-3.26,3.45-4.41c1.54-1.15,3.25-1.85,5.14-2.1c1.88-0.25,3.72,0,5.51,0.76c1.98,0.84,3.53,2.11,4.64,3.83
			c1.12,1.71,1.7,3.63,1.74,5.74l-4-0.52c-0.06-1.25-0.44-2.35-1.12-3.32c-0.68-0.96-1.6-1.69-2.77-2.18
			c-1.16-0.49-2.33-0.66-3.52-0.49c-1.18,0.16-2.25,0.62-3.18,1.38c-0.94,0.76-1.66,1.72-2.15,2.88c-0.49,1.16-0.68,2.34-0.56,3.54
			c0.12,1.19,0.52,2.27,1.23,3.23c0.7,0.96,1.64,1.69,2.8,2.18c0.89,0.37,1.78,0.56,2.7,0.55c0.91-0.01,1.78-0.21,2.62-0.62
			c0.84-0.41,1.58-1.01,2.22-1.81l-5.64-2.35l1.28-3.19l9.35,3.96l-0.59,1.39c-0.77,1.83-1.88,3.31-3.31,4.42
			c-1.43,1.12-3.04,1.78-4.82,2C93.38,243.89,91.61,243.63,89.86,242.88z"/>
		<path class="st1" d="M109.12,227.38l14.85,2.99l-0.74,3.66l-10.86-2.19l-0.98,4.87l9.68,1.95l-0.72,3.6l-9.68-1.95l-0.97,4.84
			l10.86,2.19l-0.74,3.69l-14.85-2.99L109.12,227.38z"/>
		<path class="st1" d="M126.7,230.62l6.69,0.11l7.54,17.65l0.25-17.52l3.97,0.06l-0.34,21.08l-6.48-0.11l-7.71-18.1l-0.29,17.97
			l-3.97-0.06L126.7,230.62z"/>
		<path class="st1" d="M161.39,249.26c-1.91,0.41-3.76,0.32-5.56-0.28c-1.8-0.6-3.35-1.6-4.64-3c-1.29-1.41-2.14-3.06-2.55-4.96
			c-0.41-1.9-0.32-3.76,0.27-5.57c0.6-1.81,1.59-3.37,2.98-4.67c1.39-1.3,3.04-2.15,4.94-2.56c2.1-0.45,4.1-0.29,6.01,0.5
			c1.91,0.79,3.48,2.03,4.73,3.74l-3.53,1.9c-0.79-0.98-1.73-1.68-2.83-2.12c-1.1-0.43-2.29-0.51-3.57-0.26
			c-1.24,0.27-2.28,0.81-3.15,1.62c-0.86,0.81-1.46,1.8-1.81,2.96c-0.35,1.16-0.38,2.36-0.12,3.6c0.27,1.24,0.8,2.31,1.59,3.22
			c0.79,0.91,1.75,1.55,2.87,1.93c1.12,0.39,2.3,0.44,3.53,0.18c1.27-0.28,2.32-0.82,3.13-1.63c0.81-0.81,1.37-1.83,1.68-3.04
			l4.05,0.2c-0.44,2.07-1.36,3.84-2.78,5.33C165.25,247.84,163.49,248.81,161.39,249.26z"/>
		<path class="st1" d="M167.79,225.65l13.88-6.07l1.5,3.42l-10.15,4.44l1.99,4.55l9.05-3.96l1.47,3.36l-9.05,3.96l1.98,4.53
			l10.15-4.44l1.51,3.44l-13.88,6.07L167.79,225.65z"/>
		<path class="st1" d="M211.88,224.34c-1.49,1.25-3.18,2.03-5.05,2.34c-1.87,0.31-3.71,0.15-5.51-0.49c-1.8-0.64-3.33-1.7-4.58-3.19
			s-2.03-3.19-2.35-5.08c-0.31-1.9-0.15-3.74,0.48-5.53c0.64-1.79,1.7-3.31,3.19-4.55c1.65-1.38,3.49-2.17,5.53-2.38
			c2.03-0.21,4,0.15,5.9,1.07l-2.28,3.32c-1.14-0.51-2.29-0.69-3.46-0.52c-1.17,0.16-2.24,0.65-3.21,1.47
			c-0.97,0.81-1.65,1.78-2.05,2.91c-0.39,1.13-0.46,2.28-0.22,3.46c0.24,1.19,0.77,2.26,1.58,3.23c0.81,0.97,1.77,1.68,2.89,2.12
			c1.11,0.44,2.26,0.57,3.44,0.38c1.18-0.19,2.25-0.69,3.22-1.5c0.74-0.62,1.31-1.33,1.72-2.15c0.41-0.81,0.62-1.68,0.64-2.61
			c0.02-0.93-0.18-1.87-0.6-2.8l-4.67,3.95l-2.25-2.6l7.78-6.51l0.97,1.15c1.27,1.52,2.08,3.18,2.42,4.96
			c0.34,1.78,0.2,3.52-0.42,5.2C214.39,221.66,213.35,223.11,211.88,224.34z"/>
		<path class="st1" d="M206.87,200.22l5.74-7.24c0.84-1.05,1.85-1.81,3.04-2.28c1.19-0.47,2.42-0.61,3.68-0.42
			c1.26,0.18,2.39,0.67,3.38,1.45c0.72,0.57,1.3,1.27,1.73,2.08c0.43,0.82,0.69,1.68,0.77,2.59c0.08,0.91-0.02,1.79-0.31,2.64
			l8.91,1.12l-2.69,3.39l-8.33-1.03l-2.51,3.16l5.62,4.45l-2.52,3.18L206.87,200.22z M220.69,199.5c0.61-0.77,0.87-1.61,0.78-2.53
			c-0.09-0.92-0.52-1.68-1.29-2.3c-0.74-0.59-1.56-0.83-2.46-0.72c-0.9,0.11-1.65,0.54-2.25,1.29l-3.22,4.06l5.28,4.19L220.69,199.5
			z"/>
		<path class="st1" d="M241.71,186.53c-0.87,1.74-2.1,3.13-3.69,4.16c-1.59,1.04-3.34,1.61-5.24,1.74c-1.9,0.12-3.73-0.25-5.47-1.12
			s-3.14-2.11-4.19-3.71c-1.05-1.6-1.64-3.35-1.77-5.24c-0.13-1.89,0.24-3.71,1.11-5.45c0.87-1.74,2.1-3.13,3.7-4.17
			c1.6-1.04,3.35-1.62,5.27-1.75c1.91-0.12,3.74,0.25,5.48,1.12c1.74,0.87,3.13,2.1,4.18,3.69c1.05,1.59,1.63,3.34,1.75,5.25
			C242.96,182.96,242.58,184.79,241.71,186.53z M238.32,184.83c0.56-1.13,0.8-2.29,0.7-3.49c-0.1-1.19-0.5-2.29-1.19-3.29
			c-0.69-1-1.6-1.78-2.73-2.34c-1.13-0.57-2.31-0.83-3.53-0.79s-2.34,0.38-3.37,1.01c-1.02,0.63-1.82,1.52-2.38,2.65
			c-0.56,1.11-0.78,2.27-0.67,3.47c0.11,1.2,0.51,2.3,1.21,3.3c0.7,1,1.62,1.78,2.75,2.35c1.13,0.57,2.3,0.82,3.51,0.78
			c1.21-0.05,2.32-0.38,3.33-1.01S237.75,185.96,238.32,184.83z"/>
		<path class="st1" d="M250.52,162.88c-0.4,1.56-1.11,2.9-2.16,4.02c-1.04,1.12-2.31,1.91-3.8,2.36s-3.06,0.46-4.72,0.04
			l-12.14-3.08l1-3.94l12.14,3.08c0.93,0.24,1.82,0.23,2.66-0.02c0.84-0.25,1.56-0.68,2.15-1.29c0.59-0.61,0.99-1.31,1.19-2.11
			c0.21-0.82,0.2-1.64-0.03-2.46c-0.22-0.82-0.65-1.54-1.27-2.16c-0.62-0.61-1.4-1.04-2.33-1.27l-12.14-3.08l0.99-3.91l12.14,3.08
			c1.62,0.41,2.97,1.15,4.08,2.23c1.11,1.08,1.86,2.36,2.26,3.85C250.93,159.71,250.93,161.26,250.52,162.88z"/>
		<path class="st1" d="M232.29,146.74l0.48-9.23c0.07-1.34,0.46-2.55,1.17-3.62c0.71-1.07,1.63-1.89,2.75-2.48
			c1.13-0.58,2.33-0.84,3.61-0.77c1.3,0.07,2.48,0.45,3.53,1.13c1.05,0.69,1.86,1.6,2.42,2.73c0.56,1.14,0.81,2.38,0.74,3.75
			l-0.24,5.17l6.8,0.36l-0.21,4.06L232.29,146.74z M243.37,138.34c0.06-1.08-0.24-1.98-0.9-2.69c-0.66-0.71-1.48-1.09-2.49-1.14
			c-0.98-0.05-1.81,0.24-2.49,0.87c-0.67,0.63-1.04,1.49-1.1,2.6l-0.23,4.9l6.98,0.36L243.37,138.34z"/>
	</g>
	<g>
		<path class="st1" d="M23.82,111.43"/>
	</g>
</g>
<g>
	<path class="st1" d="M67.85,74.25H60.2V71.1h18.43v3.15h-7.39v19.84h-3.38V74.25z"/>
	<path class="st1" d="M80.83,76.69h3.28v3.15c0.55-1.21,1.41-2.11,2.6-2.71c1.18-0.6,2.61-0.78,4.3-0.51v3.49
		c-1.2-0.33-2.34-0.34-3.39-0.02c-1.06,0.32-1.91,0.93-2.55,1.84c-0.63,0.91-0.95,2.03-0.95,3.36v8.8h-3.28V76.69z"/>
	<path class="st1" d="M101.69,94.35c-1.64,0-3.15-0.41-4.52-1.21c-1.37-0.81-2.45-1.91-3.23-3.29c-0.79-1.38-1.18-2.88-1.18-4.5
		c0-1.65,0.4-3.15,1.2-4.52c0.8-1.37,1.88-2.45,3.25-3.25c1.37-0.8,2.87-1.2,4.48-1.2c1.44,0,2.8,0.34,4.06,1
		c1.26,0.67,2.3,1.58,3.12,2.74c0.82,1.16,1.34,2.44,1.56,3.84c0.2,0.94,0.21,1.81,0.03,2.59H96c0.13,0.96,0.46,1.82,0.98,2.56
		c0.52,0.75,1.2,1.31,2.02,1.69c0.82,0.38,1.71,0.57,2.68,0.57c1.03,0,2-0.22,2.92-0.66c0.92-0.44,1.67-1.04,2.27-1.81l2.92,0.76
		c-0.7,1.4-1.81,2.53-3.31,3.38C104.97,93.93,103.37,94.35,101.69,94.35z M107.23,84.01c-0.13-0.86-0.45-1.64-0.97-2.37
		c-0.51-0.72-1.17-1.29-1.97-1.71c-0.8-0.42-1.68-0.63-2.64-0.63c-0.99,0-1.89,0.21-2.69,0.63c-0.81,0.42-1.47,0.98-1.97,1.71
		c-0.5,0.73-0.83,1.51-0.98,2.37H107.23z"/>
	<path class="st1" d="M114.36,71.1h3.26v22.99h-3.26V71.1z"/>
	<path class="st1" d="M122.08,71.1h3.26v22.99h-3.26V71.1z"/>
	<path class="st1" d="M131.64,74.22c-0.61,0-1.13-0.21-1.56-0.63c-0.43-0.42-0.64-0.93-0.64-1.54c0-0.61,0.21-1.13,0.64-1.56
		c0.42-0.43,0.95-0.64,1.56-0.64c0.64,0,1.16,0.21,1.58,0.62c0.42,0.42,0.63,0.95,0.63,1.58c0,0.61-0.21,1.13-0.64,1.54
		S132.25,74.22,131.64,74.22z M129.96,76.69h3.25v17.41h-3.25V76.69z"/>
	<path class="st1" d="M142.57,85.39l-5.85-8.7h3.65l4.79,6.93l4.76-6.93h3.65l-5.84,8.7l5.84,8.7h-3.65l-4.76-6.97l-4.79,6.97h-3.65
		L142.57,85.39z"/>
</g>
<g>
	<g>
		<g>
			<g>
				<radialGradient id="SVGID_1_" cx="135.221" cy="134.9915" r="87.7195" gradientUnits="userSpaceOnUse">
					<stop  offset="0.0737" style="stop-color:#3600FF"/>
					<stop  offset="0.1226" style="stop-color:#2E18FF"/>
					<stop  offset="0.2534" style="stop-color:#1B55FF"/>
					<stop  offset="0.3647" style="stop-color:#0C81FF"/>
					<stop  offset="0.4508" style="stop-color:#039CFF"/>
					<stop  offset="0.5014" style="stop-color:#00A6FF"/>
					<stop  offset="1" style="stop-color:#00D300"/>
				</radialGradient>
				<path class="st3" d="M158.3,134.48h-25.12l45.93-58.78h25.12L158.3,134.48z"/>
			</g>
		</g>
	</g>
	<polygon class="st1" points="180.76,194.91 111.2,105.92 86.08,105.92 120.85,150.39 86.08,194.91 111.2,194.91 133.41,166.47 
		155.64,194.91 	"/>
</g>
<g>
</g>
<g>
</g>
<g>
</g>
<g>
</g>
<g>
</g>
<g>
</g>
</svg>
