<svg xmlns="http://www.w3.org/2000/svg"
     viewBox="0 0 200 200"
     width="100%"
     height="auto"
     preserveAspectRatio="xMidYMid meet"
     role="img"
     aria-labelledby="iconTitle iconDesc">
  <title id="iconTitle">Abstraktes Quadrat mit geschwungenem Muster</title>
  <desc id="iconDesc">Quadratischer Hintergrund in Türkis mit weißem, organischem Vordergrundpfad, transformiert.</desc>

  <defs>
    <style>
      .bg-fill{fill:#30A9B3}
      .fg-fill{fill:#FCFEFE}
    </style>
  </defs>

  <g id="background" transform="translate(0 0) scale(1)">
    <path class="bg-fill" d="M0 0 C66 0 132 0 200 0 C200 66 200 132 200 200 C134 200 68 200 0 200 C0 134 0 68 0 0 Z" />
  </g>

  <g id="foreground" transform="translate(102 41) scale(1)">
    <path class="fg-fill" d="M0 0 C0.66 0 1.32 0 2 0 C2 7.59 2 15.18 2 23 C14.375 22.01 14.375 22.01 27 21 C26.34 25.62 25.68 30.24 25 35 C22.10410348 35.02706445 19.20846205 35.04687029 16.3125 35.0625 C15.08756836 35.07506836 15.08756836 35.07506836 13.83789062 35.08789062 C13.04189453 35.09111328 12.24589844 35.09433594 11.42578125 35.09765625 C10.69786377 35.10289307 9.96994629 35.10812988 9.2199707 35.11352539 C6.73886103 34.98664581 4.4290574 34.50705888 2 34 C2.06129325 41.47614595 2.138458 48.951952 2.23571491 56.42772198 C2.28038373 59.89930066 2.31964707 63.37076294 2.34643555 66.8425293 C2.37749455 70.8367256 2.43228188 74.83029368 2.48828125 78.82421875 C2.49467117 80.06709152 2.5010611 81.30996429 2.50764465 82.59049988 C2.52743881 83.75132584 2.54723297 84.91215179 2.56762695 86.1081543 C2.58428154 87.63704536 2.58428154 87.63704536 2.60127258 89.19682312 C3.06408036 92.4505047 4.07531525 94.3571216 6 97 C10.05768722 99.02884361 14.42843094 98.51758262 18.609375 97.140625 C20.31777473 96.44311268 22.01675264 95.72185671 23.703125 94.97265625 C25.79910712 94.08507198 27.78094035 93.4835107 30 93 C30.99 95.31 31.98 97.62 33 100 C22.97461001 108.9164868 11.85492619 115.42600707 -1.7890625 115.27734375 C-7.97396952 114.74312429 -13.73826355 112.87413646 -17.9375 108.125 C-21.5141255 102.70587046 -23.3783203 98.82773247 -23.34057617 92.26025391 C-23.34101425 91.61564209 -23.34145233 90.97103027 -23.34190369 90.30688477 C-23.33982956 88.19645885 -23.31656576 86.08684797 -23.29296875 83.9765625 C-23.28736785 82.50540602 -23.28310009 81.03424392 -23.28010559 79.56307983 C-23.26869557 75.70620048 -23.23926212 71.84966441 -23.20599365 67.99291992 C-23.1752094 64.05131676 -23.16158247 60.10965769 -23.14648438 56.16796875 C-23.11438818 48.44515664 -23.0632391 40.72262657 -23 33 C-26.63 33 -30.26 33 -34 33 C-34.33 30.36 -34.66 27.72 -35 25 C-33.56445975 24.49440092 -32.1264798 23.9957251 -30.6875 23.5 C-29.88699219 23.2215625 -29.08648437 22.943125 -28.26171875 22.65625 C-26 22 -26 22 -23 22 C-23 18.37 -23 14.74 -23 11 C-21.42347656 10.28972656 -19.84695312 9.57945313 -18.22265625 8.84765625 C-16.16921727 7.91938931 -14.11583476 6.99099746 -12.0625 6.0625 C-11.02158203 5.59392578 -9.98066406 5.12535156 -8.90820312 4.64257812 C-7.91884766 4.19462891 -6.92949219 3.74667969 -5.91015625 3.28515625 C-4.99371338 2.87144775 -4.07727051 2.45773926 -3.13305664 2.03149414 C-1.06703871 1.17662094 -1.06703871 1.17662094 0 0 Z" />
  </g>
</svg>
